<mxfile host="drawio-plugin" modified="2023-06-07T02:27:36.142Z" agent="5.0 (Windows NT 6.2; Win64; x64) AppleWebKit/537.36 (KHTML, like Gecko) Chrome/104.0.5112.102 Safari/537.36" etag="icC4XmPzXXtLNEIgpbVn" version="20.5.3" type="embed"><diagram id="PG2w0AKIMrAd8hYZp7g7" name="Page-1"><mxGraphModel dx="2145" dy="1400" grid="1" gridSize="10" guides="1" tooltips="1" connect="1" arrows="1" fold="1" page="1" pageScale="1" pageWidth="850" pageHeight="1100" math="0" shadow="0"><root><mxCell id="0"/><mxCell id="1" parent="0"/><mxCell id="35" value="Driver" style="swimlane;fontStyle=1;align=center;verticalAlign=top;childLayout=stackLayout;horizontal=1;startSize=26;horizontalStack=0;resizeParent=1;resizeParentMax=0;resizeLast=0;collapsible=1;marginBottom=0;gradientColor=none;fillColor=default;" parent="1" vertex="1"><mxGeometry x="160" y="270" width="200" height="120" as="geometry"/></mxCell><mxCell id="36" value="+ Controller: BattleSalvoController" style="text;strokeColor=none;fillColor=default;align=left;verticalAlign=top;spacingLeft=4;spacingRight=4;overflow=hidden;rotatable=0;points=[[0,0.5],[1,0.5]];portConstraint=eastwest;" parent="35" vertex="1"><mxGeometry y="26" width="200" height="44" as="geometry"/></mxCell><mxCell id="37" value="" style="line;strokeWidth=1;fillColor=none;align=left;verticalAlign=middle;spacingTop=-1;spacingLeft=3;spacingRight=3;rotatable=0;labelPosition=right;points=[];portConstraint=eastwest;strokeColor=inherit;" parent="35" vertex="1"><mxGeometry y="70" width="200" height="8" as="geometry"/></mxCell><mxCell id="38" value="+ main(): void&#10;+ Controller.run(): void" style="text;strokeColor=none;fillColor=default;align=left;verticalAlign=top;spacingLeft=4;spacingRight=4;overflow=hidden;rotatable=0;points=[[0,0.5],[1,0.5]];portConstraint=eastwest;" parent="35" vertex="1"><mxGeometry y="78" width="200" height="42" as="geometry"/></mxCell><mxCell id="40" value="«interface»&lt;br&gt;&lt;b&gt;View&lt;br&gt;(anything public is&lt;br&gt;&amp;nbsp;@overridden)&lt;br&gt;&lt;/b&gt;" style="html=1;fillColor=#1ba1e2;fontColor=#ffffff;strokeColor=#006EAF;" parent="1" vertex="1"><mxGeometry x="160" y="420" width="140" height="80" as="geometry"/></mxCell><mxCell id="41" value="«interface»&lt;br&gt;&lt;b&gt;Model&lt;br&gt;&lt;/b&gt;&lt;b&gt;(anything public is&lt;br&gt;&amp;nbsp;@overridden)&lt;/b&gt;&lt;b&gt;&lt;br&gt;&lt;/b&gt;" style="html=1;fillColor=#a20025;fontColor=#ffffff;strokeColor=#6F0000;" parent="1" vertex="1"><mxGeometry x="630" y="400" width="130" height="80" as="geometry"/></mxCell><mxCell id="42" value="«interface»&lt;br&gt;&lt;b&gt;Controller&lt;br&gt;&lt;/b&gt;&lt;b&gt;(anything public is&lt;br&gt;&amp;nbsp;@overridden)&lt;/b&gt;&lt;b&gt;&lt;br&gt;&lt;/b&gt;" style="html=1;fillColor=#60a917;fontColor=#ffffff;strokeColor=#2D7600;" parent="1" vertex="1"><mxGeometry x="389" y="390" width="120" height="80" as="geometry"/></mxCell><mxCell id="44" value="BattleSalvoCommandView" style="swimlane;fontStyle=1;align=center;verticalAlign=top;childLayout=stackLayout;horizontal=1;startSize=26;horizontalStack=0;resizeParent=1;resizeParentMax=0;resizeLast=0;collapsible=1;marginBottom=0;fillColor=#1ba1e2;fontColor=#ffffff;strokeColor=#006EAF;" parent="1" vertex="1"><mxGeometry y="530" width="250" height="290" as="geometry"/></mxCell><mxCell id="45" value="- scanner: Scanner&#10;- appendTo: Appendable" style="text;strokeColor=#006EAF;fillColor=#1ba1e2;align=left;verticalAlign=top;spacingLeft=4;spacingRight=4;overflow=hidden;rotatable=0;points=[[0,0.5],[1,0.5]];portConstraint=eastwest;fontColor=#ffffff;" parent="44" vertex="1"><mxGeometry y="26" width="250" height="54" as="geometry"/></mxCell><mxCell id="46" value="" style="line;strokeWidth=1;fillColor=#1ba1e2;align=left;verticalAlign=middle;spacingTop=-1;spacingLeft=3;spacingRight=3;rotatable=0;labelPosition=right;points=[];portConstraint=eastwest;strokeColor=#006EAF;fontColor=#ffffff;" parent="44" vertex="1"><mxGeometry y="80" width="250" height="8" as="geometry"/></mxCell><mxCell id="47" value="+ write(String): void&#10;+ read(): String&#10;+ welcome(): List&lt;Integer&gt;&#10;+ shipSelection(int): Map&lt;ShipType, Integer&gt;&#10;+ reWelcome(): List&lt;Integer&gt;&#10;+ reShipSelection(int): Map&lt;ShipType, Integer&gt;&#10;+ selectShots(int): List&lt;Coord&gt;&#10;+ displayBoard(): void&#10;+ updateBoard(): void&#10;+ showLossScreen(): void &#10;+ showTieScreen(): void&#10;+ showWinScreen(): void&#10;- readInShips(): Map&lt;ShipType, Integer&gt;" style="text;strokeColor=#006EAF;fillColor=#1ba1e2;align=left;verticalAlign=top;spacingLeft=4;spacingRight=4;overflow=hidden;rotatable=0;points=[[0,0.5],[1,0.5]];portConstraint=eastwest;fontColor=#ffffff;" parent="44" vertex="1"><mxGeometry y="88" width="250" height="202" as="geometry"/></mxCell><mxCell id="48" value="Appendable" style="html=1;fillColor=default;gradientColor=none;" parent="1" vertex="1"><mxGeometry x="-30" y="950" width="110" height="50" as="geometry"/></mxCell><mxCell id="49" value="«interface»&lt;br&gt;&lt;b&gt;Appendable&lt;/b&gt;" style="html=1;fillColor=default;gradientColor=none;" parent="1" vertex="1"><mxGeometry x="-30" y="1010" width="110" height="50" as="geometry"/></mxCell><mxCell id="50" value="«interface»&lt;br&gt;&lt;b&gt;Readable&lt;/b&gt;" style="html=1;fillColor=default;gradientColor=none;" parent="1" vertex="1"><mxGeometry x="90" y="1010" width="110" height="50" as="geometry"/></mxCell><mxCell id="51" value="Scanner(Readable)" style="html=1;fillColor=default;gradientColor=none;" parent="1" vertex="1"><mxGeometry x="90" y="950" width="110" height="50" as="geometry"/></mxCell><mxCell id="52" value="" style="endArrow=block;dashed=1;endFill=0;endSize=12;html=1;rounded=0;exitX=0.5;exitY=0;exitDx=0;exitDy=0;entryX=0.5;entryY=1;entryDx=0;entryDy=0;" parent="1" source="49" target="48" edge="1"><mxGeometry width="160" relative="1" as="geometry"><mxPoint x="260" y="740" as="sourcePoint"/><mxPoint x="420" y="740" as="targetPoint"/></mxGeometry></mxCell><mxCell id="54" value="" style="endArrow=block;dashed=1;endFill=0;endSize=12;html=1;rounded=0;exitX=0.5;exitY=0;exitDx=0;exitDy=0;entryX=0.5;entryY=1;entryDx=0;entryDy=0;" parent="1" source="50" target="51" edge="1"><mxGeometry width="160" relative="1" as="geometry"><mxPoint x="260" y="740" as="sourcePoint"/><mxPoint x="420" y="740" as="targetPoint"/></mxGeometry></mxCell><mxCell id="55" value="Use" style="endArrow=open;endSize=12;dashed=1;html=1;rounded=0;exitX=0.25;exitY=1;exitDx=0;exitDy=0;entryX=0.5;entryY=0;entryDx=0;entryDy=0;" parent="1" source="44" target="48" edge="1"><mxGeometry width="160" relative="1" as="geometry"><mxPoint x="260" y="790" as="sourcePoint"/><mxPoint x="420" y="790" as="targetPoint"/></mxGeometry></mxCell><mxCell id="57" value="Use" style="endArrow=open;endSize=12;dashed=1;html=1;rounded=0;entryX=0.25;entryY=0;entryDx=0;entryDy=0;exitX=0.5;exitY=1;exitDx=0;exitDy=0;" parent="1" source="44" target="51" edge="1"><mxGeometry width="160" relative="1" as="geometry"><mxPoint x="260" y="790" as="sourcePoint"/><mxPoint x="420" y="790" as="targetPoint"/></mxGeometry></mxCell><mxCell id="58" value="" style="endArrow=block;dashed=1;endFill=0;endSize=12;html=1;rounded=0;entryX=0.5;entryY=0;entryDx=0;entryDy=0;exitX=0.5;exitY=1;exitDx=0;exitDy=0;" parent="1" source="40" target="44" edge="1"><mxGeometry width="160" relative="1" as="geometry"><mxPoint x="170" y="570" as="sourcePoint"/><mxPoint x="370" y="590" as="targetPoint"/></mxGeometry></mxCell><mxCell id="59" value="controller" style="shape=folder;fontStyle=1;spacingTop=10;tabWidth=40;tabHeight=14;tabPosition=left;html=1;" parent="1" vertex="1"><mxGeometry x="270" y="190" width="70" height="50" as="geometry"/></mxCell><mxCell id="60" value="view" style="shape=folder;fontStyle=1;spacingTop=10;tabWidth=40;tabHeight=14;tabPosition=left;html=1;" parent="1" vertex="1"><mxGeometry x="180" y="190" width="70" height="50" as="geometry"/></mxCell><mxCell id="61" value="model" style="shape=folder;fontStyle=1;spacingTop=10;tabWidth=40;tabHeight=14;tabPosition=left;html=1;" parent="1" vertex="1"><mxGeometry x="360" y="190" width="70" height="50" as="geometry"/></mxCell><mxCell id="62" value="&lt;p style=&quot;margin:0px;margin-top:4px;text-align:center;&quot;&gt;&lt;b&gt;GameResult (E)&lt;/b&gt;&lt;/p&gt;&lt;hr size=&quot;1&quot;&gt;&lt;p style=&quot;margin:0px;margin-left:4px;&quot;&gt;enum {CONTINUE, WIN,&amp;nbsp;&lt;/p&gt;&lt;p style=&quot;margin:0px;margin-left:4px;&quot;&gt;LOSE, TIE}&lt;/p&gt;" style="verticalAlign=top;align=left;overflow=fill;fontSize=12;fontFamily=Helvetica;html=1;fillColor=#60a917;fontColor=#ffffff;strokeColor=#2D7600;" parent="1" vertex="1"><mxGeometry x="280" y="520" width="160" height="70" as="geometry"/></mxCell><mxCell id="63" value="Use" style="endArrow=open;endSize=12;dashed=1;html=1;rounded=0;exitX=0.5;exitY=0;exitDx=0;exitDy=0;entryX=0;entryY=1;entryDx=0;entryDy=0;" parent="1" source="62" target="42" edge="1"><mxGeometry width="160" relative="1" as="geometry"><mxPoint x="250" y="660" as="sourcePoint"/><mxPoint x="410" y="660" as="targetPoint"/></mxGeometry></mxCell><mxCell id="66" value="BattleSalvoController" style="swimlane;fontStyle=1;align=center;verticalAlign=top;childLayout=stackLayout;horizontal=1;startSize=26;horizontalStack=0;resizeParent=1;resizeParentMax=0;resizeLast=0;collapsible=1;marginBottom=0;fillColor=#60a917;fontColor=#ffffff;strokeColor=#2D7600;" parent="1" vertex="1"><mxGeometry x="450" y="520" width="220" height="190" as="geometry"/></mxCell><mxCell id="67" value="- model : final Model &#10;- view: final View&#10;- gameStarted: boolean" style="text;strokeColor=#2D7600;fillColor=#60a917;align=left;verticalAlign=top;spacingLeft=4;spacingRight=4;overflow=hidden;rotatable=0;points=[[0,0.5],[1,0.5]];portConstraint=eastwest;fontColor=#ffffff;" parent="66" vertex="1"><mxGeometry y="26" width="220" height="64" as="geometry"/></mxCell><mxCell id="68" value="" style="line;strokeWidth=1;fillColor=#60a917;align=left;verticalAlign=middle;spacingTop=-1;spacingLeft=3;spacingRight=3;rotatable=0;labelPosition=right;points=[];portConstraint=eastwest;strokeColor=#2D7600;fontColor=#ffffff;" parent="66" vertex="1"><mxGeometry y="90" width="220" height="8" as="geometry"/></mxCell><mxCell id="69" value="+ run(): void&#10;+ BattleSalvoController(): BattleSalvoController&#10;+ BattleSalvoController(Model model, View view):&#10;+ showEndScreen(GameResult result): void" style="text;strokeColor=#2D7600;fillColor=#60a917;align=left;verticalAlign=top;spacingLeft=4;spacingRight=4;overflow=hidden;rotatable=0;points=[[0,0.5],[1,0.5]];portConstraint=eastwest;fontColor=#ffffff;" parent="66" vertex="1"><mxGeometry y="98" width="220" height="92" as="geometry"/></mxCell><mxCell id="70" value="" style="endArrow=block;dashed=1;endFill=0;endSize=12;html=1;rounded=0;exitX=0.5;exitY=1;exitDx=0;exitDy=0;entryX=0.5;entryY=0;entryDx=0;entryDy=0;" parent="1" source="42" target="66" edge="1"><mxGeometry width="160" relative="1" as="geometry"><mxPoint x="250" y="630" as="sourcePoint"/><mxPoint x="410" y="630" as="targetPoint"/></mxGeometry></mxCell><mxCell id="71" value="Use" style="endArrow=open;endSize=12;dashed=1;html=1;rounded=0;entryX=1;entryY=0.25;entryDx=0;entryDy=0;exitX=0;exitY=0;exitDx=0;exitDy=0;" parent="1" source="42" target="35" edge="1"><mxGeometry width="160" relative="1" as="geometry"><mxPoint x="250" y="490" as="sourcePoint"/><mxPoint x="410" y="490" as="targetPoint"/></mxGeometry></mxCell><mxCell id="72" value="1" style="endArrow=open;html=1;endSize=12;startArrow=diamondThin;startSize=14;startFill=1;edgeStyle=orthogonalEdgeStyle;align=left;verticalAlign=bottom;rounded=0;entryX=1;entryY=0.75;entryDx=0;entryDy=0;exitX=0.25;exitY=0;exitDx=0;exitDy=0;" parent="1" source="66" target="40" edge="1"><mxGeometry x="-0.9167" relative="1" as="geometry"><mxPoint x="420" y="510" as="sourcePoint"/><mxPoint x="400" y="600" as="targetPoint"/><Array as="points"><mxPoint x="490" y="510"/><mxPoint x="330" y="510"/><mxPoint x="330" y="480"/></Array><mxPoint as="offset"/></mxGeometry></mxCell><mxCell id="73" value="1" style="endArrow=open;html=1;endSize=12;startArrow=diamondThin;startSize=14;startFill=1;edgeStyle=orthogonalEdgeStyle;align=left;verticalAlign=bottom;rounded=0;exitX=1;exitY=0.25;exitDx=0;exitDy=0;entryX=0.5;entryY=1;entryDx=0;entryDy=0;" parent="1" source="66" target="41" edge="1"><mxGeometry x="-1" y="3" relative="1" as="geometry"><mxPoint x="320" y="500" as="sourcePoint"/><mxPoint x="580" y="480" as="targetPoint"/></mxGeometry></mxCell><mxCell id="74" value="ShipType (E)" style="swimlane;fontStyle=1;align=center;verticalAlign=top;childLayout=stackLayout;horizontal=1;startSize=26;horizontalStack=0;resizeParent=1;resizeParentMax=0;resizeLast=0;collapsible=1;marginBottom=0;fillColor=#a20025;fontColor=#ffffff;strokeColor=#6F0000;" parent="1" vertex="1"><mxGeometry x="280" y="630" width="150" height="140" as="geometry"/></mxCell><mxCell id="75" value="+ enum{ CARRIER(6), BATTLESHIP(5),&#10;DESTROYER(4), SUB(3) }&#10;- shipSize: final int" style="text;strokeColor=#6F0000;fillColor=#a20025;align=left;verticalAlign=top;spacingLeft=4;spacingRight=4;overflow=hidden;rotatable=0;points=[[0,0.5],[1,0.5]];portConstraint=eastwest;fontColor=#ffffff;" parent="74" vertex="1"><mxGeometry y="26" width="150" height="64" as="geometry"/></mxCell><mxCell id="76" value="" style="line;strokeWidth=1;fillColor=#a20025;align=left;verticalAlign=middle;spacingTop=-1;spacingLeft=3;spacingRight=3;rotatable=0;labelPosition=right;points=[];portConstraint=eastwest;strokeColor=#6F0000;fontColor=#ffffff;" parent="74" vertex="1"><mxGeometry y="90" width="150" height="8" as="geometry"/></mxCell><mxCell id="77" value="+ Shiptype(int shipSize): void&#10;+ getShipSize(): int " style="text;strokeColor=#6F0000;fillColor=#a20025;align=left;verticalAlign=top;spacingLeft=4;spacingRight=4;overflow=hidden;rotatable=0;points=[[0,0.5],[1,0.5]];portConstraint=eastwest;fontColor=#ffffff;" parent="74" vertex="1"><mxGeometry y="98" width="150" height="42" as="geometry"/></mxCell><mxCell id="78" value="UserPlayer" style="swimlane;fontStyle=1;align=center;verticalAlign=top;childLayout=stackLayout;horizontal=1;startSize=26;horizontalStack=0;resizeParent=1;resizeParentMax=0;resizeLast=0;collapsible=1;marginBottom=0;fillColor=#a20025;fontColor=#ffffff;strokeColor=#6F0000;" parent="1" vertex="1"><mxGeometry x="720" y="950" width="220" height="240" as="geometry"/></mxCell><mxCell id="79" value="+ name: String&#10;- userBoard: BattleSalvoBoard&#10;- enemyBoard: BattleSalvoBoard" style="text;strokeColor=#6F0000;fillColor=#a20025;align=left;verticalAlign=top;spacingLeft=4;spacingRight=4;overflow=hidden;rotatable=0;points=[[0,0.5],[1,0.5]];portConstraint=eastwest;fontColor=#ffffff;" parent="78" vertex="1"><mxGeometry y="26" width="220" height="64" as="geometry"/></mxCell><mxCell id="80" value="" style="line;strokeWidth=1;fillColor=#a20025;align=left;verticalAlign=middle;spacingTop=-1;spacingLeft=3;spacingRight=3;rotatable=0;labelPosition=right;points=[];portConstraint=eastwest;strokeColor=#6F0000;fontColor=#ffffff;" parent="78" vertex="1"><mxGeometry y="90" width="220" height="8" as="geometry"/></mxCell><mxCell id="81" value="- findShotNum(List&lt;Ship&gt;): int&#10;- // All @override methods &#10;&#10;+ name(): String&#10;+ setup(int, int , Map&lt;ShipType, Integer): List&lt;Ship&gt;&#10;+ takeShots(): List&lt;Coord&gt;&#10;+ reportDamage(List&lt;Coord&gt;): List&lt;Coord&gt;&#10;+ successfulHits(List&lt;Coord&gt;): void &#10;+ endGame(GameResult, String): void&#10;" style="text;strokeColor=#6F0000;fillColor=#a20025;align=left;verticalAlign=top;spacingLeft=4;spacingRight=4;overflow=hidden;rotatable=0;points=[[0,0.5],[1,0.5]];portConstraint=eastwest;fontColor=#ffffff;" parent="78" vertex="1"><mxGeometry y="98" width="220" height="142" as="geometry"/></mxCell><mxCell id="82" value="AiPlayer" style="swimlane;fontStyle=1;align=center;verticalAlign=top;childLayout=stackLayout;horizontal=1;startSize=26;horizontalStack=0;resizeParent=1;resizeParentMax=0;resizeLast=0;collapsible=1;marginBottom=0;fillColor=#a20025;fontColor=#ffffff;strokeColor=#6F0000;" parent="1" vertex="1"><mxGeometry x="960" y="950" width="220" height="240" as="geometry"/></mxCell><mxCell id="83" value="+ name: String&#10;- userBoard: BattleSalvoBoard&#10;- enemyBoard: BattleSalvoBoard" style="text;strokeColor=#6F0000;fillColor=#a20025;align=left;verticalAlign=top;spacingLeft=4;spacingRight=4;overflow=hidden;rotatable=0;points=[[0,0.5],[1,0.5]];portConstraint=eastwest;fontColor=#ffffff;" parent="82" vertex="1"><mxGeometry y="26" width="220" height="64" as="geometry"/></mxCell><mxCell id="84" value="" style="line;strokeWidth=1;fillColor=#a20025;align=left;verticalAlign=middle;spacingTop=-1;spacingLeft=3;spacingRight=3;rotatable=0;labelPosition=right;points=[];portConstraint=eastwest;strokeColor=#6F0000;fontColor=#ffffff;" parent="82" vertex="1"><mxGeometry y="90" width="220" height="8" as="geometry"/></mxCell><mxCell id="85" value="- findShotNum(List&lt;Ship&gt;): int&#10;- // All @override methods &#10;&#10;+ name(): String&#10;+ setup(int, int , Map&lt;ShipType, Integer): List&lt;Ship&gt;&#10;+ takeShots(): List&lt;Coord&gt;&#10;+ reportDamage(List&lt;Coord&gt;): List&lt;Coord&gt;&#10;+ successfulHits(List&lt;Coord&gt;): void &#10;+ endGame(GameResult, String): void" style="text;strokeColor=#6F0000;fillColor=#a20025;align=left;verticalAlign=top;spacingLeft=4;spacingRight=4;overflow=hidden;rotatable=0;points=[[0,0.5],[1,0.5]];portConstraint=eastwest;fontColor=#ffffff;" parent="82" vertex="1"><mxGeometry y="98" width="220" height="142" as="geometry"/></mxCell><mxCell id="86" value="&lt;p style=&quot;margin:0px;margin-top:4px;text-align:center;&quot;&gt;&lt;i&gt;&amp;lt;&amp;lt;Abstract&amp;gt;&amp;gt;&lt;/i&gt;&lt;br&gt;&lt;b&gt;AbsPlayer&lt;/b&gt;&lt;/p&gt;&lt;hr size=&quot;1&quot;&gt;&lt;p style=&quot;margin:0px;margin-left:4px;&quot;&gt;+ name: String&lt;br&gt;+ userBoard: BattleSalvoBoard&lt;/p&gt;&lt;p style=&quot;margin:0px;margin-left:4px;&quot;&gt;+ enemyBoard: BattleSalvoBoard&lt;/p&gt;&lt;hr size=&quot;1&quot;&gt;&lt;p style=&quot;margin:0px;margin-left:4px;&quot;&gt;+ name(): String&lt;br&gt;+ setup(int, int , Map&amp;lt;ShipType, Integer): List&amp;lt;Ship&amp;gt;&lt;/p&gt;&lt;p style=&quot;margin:0px;margin-left:4px;&quot;&gt;+ takeShots(): List&amp;lt;Coord&amp;gt;&lt;/p&gt;&lt;p style=&quot;margin:0px;margin-left:4px;&quot;&gt;+ reportDamage(List&amp;lt;Coord&amp;gt;): List&amp;lt;Coord&amp;gt;&lt;/p&gt;&lt;p style=&quot;margin:0px;margin-left:4px;&quot;&gt;+ successfulHits(List&amp;lt;Coord&amp;gt;): void&amp;nbsp;&lt;/p&gt;&lt;p style=&quot;margin:0px;margin-left:4px;&quot;&gt;+ endGame(GameResult, String): void //can be null&lt;/p&gt;&lt;p style=&quot;margin:0px;margin-left:4px;&quot;&gt;&lt;br&gt;&lt;/p&gt;" style="verticalAlign=top;align=left;overflow=fill;fontSize=12;fontFamily=Helvetica;html=1;fillColor=#a20025;fontColor=#ffffff;strokeColor=#6F0000;" parent="1" vertex="1"><mxGeometry x="700" y="690" width="290" height="200" as="geometry"/></mxCell><mxCell id="92" value="&lt;p style=&quot;margin:0px;margin-top:4px;text-align:center;&quot;&gt;&lt;i&gt;&amp;lt;&amp;lt;Interface&amp;gt;&amp;gt;&lt;/i&gt;&lt;br&gt;&lt;b&gt;Player&lt;/b&gt;&lt;/p&gt;&lt;hr size=&quot;1&quot;&gt;&lt;p style=&quot;margin:0px;margin-left:4px;&quot;&gt;&lt;span style=&quot;background-color: initial;&quot;&gt;+ name(): String&lt;/span&gt;&lt;/p&gt;&lt;p style=&quot;margin: 0px 0px 0px 4px;&quot;&gt;+ setup(int, int , Map&amp;lt;ShipType, Integer): List&amp;lt;Ship&amp;gt;&lt;/p&gt;&lt;p style=&quot;margin: 0px 0px 0px 4px;&quot;&gt;+ takeShots(): List&amp;lt;Coord&amp;gt;&lt;/p&gt;&lt;p style=&quot;margin: 0px 0px 0px 4px;&quot;&gt;+ reportDamage(List&amp;lt;Coord&amp;gt;): List&amp;lt;Coord&amp;gt;&lt;/p&gt;&lt;p style=&quot;margin: 0px 0px 0px 4px;&quot;&gt;+ successfulHits(List&amp;lt;Coord&amp;gt;): void&amp;nbsp;&lt;/p&gt;&lt;p style=&quot;margin: 0px 0px 0px 4px;&quot;&gt;+ endGame(GameResult, String): void //can be null&lt;/p&gt;" style="verticalAlign=top;align=left;overflow=fill;fontSize=12;fontFamily=Helvetica;html=1;fillColor=#6a00ff;fontColor=#ffffff;strokeColor=#3700CC;" parent="1" vertex="1"><mxGeometry x="1030" y="740" width="290" height="167.5" as="geometry"/></mxCell><mxCell id="93" value="" style="endArrow=block;dashed=1;endFill=0;endSize=12;html=1;rounded=0;exitX=0;exitY=0.5;exitDx=0;exitDy=0;entryX=1;entryY=0.25;entryDx=0;entryDy=0;" parent="1" source="92" target="86" edge="1"><mxGeometry width="160" relative="1" as="geometry"><mxPoint x="850" y="750" as="sourcePoint"/><mxPoint x="1200" y="810" as="targetPoint"/></mxGeometry></mxCell><mxCell id="94" value="Extends" style="endArrow=block;endSize=16;endFill=0;html=1;rounded=0;exitX=0.5;exitY=0;exitDx=0;exitDy=0;entryX=0.25;entryY=1;entryDx=0;entryDy=0;" parent="1" source="78" target="86" edge="1"><mxGeometry width="160" relative="1" as="geometry"><mxPoint x="850" y="930" as="sourcePoint"/><mxPoint x="1010" y="930" as="targetPoint"/></mxGeometry></mxCell><mxCell id="95" value="Extends" style="endArrow=block;endSize=16;endFill=0;html=1;rounded=0;exitX=0.5;exitY=0;exitDx=0;exitDy=0;entryX=0.75;entryY=1;entryDx=0;entryDy=0;" parent="1" source="82" target="86" edge="1"><mxGeometry width="160" relative="1" as="geometry"><mxPoint x="850" y="930" as="sourcePoint"/><mxPoint x="1010" y="930" as="targetPoint"/></mxGeometry></mxCell><mxCell id="99" value="Use" style="endArrow=open;endSize=12;dashed=1;html=1;rounded=0;exitX=0.75;exitY=0;exitDx=0;exitDy=0;entryX=0;entryY=0;entryDx=0;entryDy=50;entryPerimeter=0;" parent="1" source="35" target="61" edge="1"><mxGeometry width="160" relative="1" as="geometry"><mxPoint x="470" y="300" as="sourcePoint"/><mxPoint x="630" y="300" as="targetPoint"/></mxGeometry></mxCell><mxCell id="100" value="Use" style="endArrow=open;endSize=12;dashed=1;html=1;rounded=0;exitX=0.5;exitY=0;exitDx=0;exitDy=0;entryX=0.25;entryY=1;entryDx=0;entryDy=0;entryPerimeter=0;" parent="1" source="35" target="59" edge="1"><mxGeometry width="160" relative="1" as="geometry"><mxPoint x="470" y="300" as="sourcePoint"/><mxPoint x="630" y="300" as="targetPoint"/></mxGeometry></mxCell><mxCell id="101" value="Use" style="endArrow=open;endSize=12;dashed=1;html=1;rounded=0;entryX=0.25;entryY=1;entryDx=0;entryDy=0;entryPerimeter=0;exitX=0.25;exitY=0;exitDx=0;exitDy=0;" parent="1" source="35" target="60" edge="1"><mxGeometry width="160" relative="1" as="geometry"><mxPoint x="470" y="300" as="sourcePoint"/><mxPoint x="630" y="300" as="targetPoint"/></mxGeometry></mxCell><mxCell id="102" value="Ship" style="swimlane;fontStyle=1;align=center;verticalAlign=top;childLayout=stackLayout;horizontal=1;startSize=26;horizontalStack=0;resizeParent=1;resizeParentMax=0;resizeLast=0;collapsible=1;marginBottom=0;fillColor=#a20025;fontColor=#ffffff;strokeColor=#6F0000;" parent="1" vertex="1"><mxGeometry x="265" y="800" width="180" height="180" as="geometry"/></mxCell><mxCell id="103" value="- location: final List&lt;Coord&gt;&#10;- hits: List&lt;Coord&gt;&#10;- shipType: final ShipType&#10;- isSunk: Boolean" style="text;strokeColor=#6F0000;fillColor=#a20025;align=left;verticalAlign=top;spacingLeft=4;spacingRight=4;overflow=hidden;rotatable=0;points=[[0,0.5],[1,0.5]];portConstraint=eastwest;fontColor=#ffffff;" parent="102" vertex="1"><mxGeometry y="26" width="180" height="74" as="geometry"/></mxCell><mxCell id="104" value="" style="line;strokeWidth=1;fillColor=#a20025;align=left;verticalAlign=middle;spacingTop=-1;spacingLeft=3;spacingRight=3;rotatable=0;labelPosition=right;points=[];portConstraint=eastwest;strokeColor=#6F0000;fontColor=#ffffff;" parent="102" vertex="1"><mxGeometry y="100" width="180" height="8" as="geometry"/></mxCell><mxCell id="105" value="+ isHit(Coord): boolean&#10;+ updateSunk(): void&#10;+ isAlive(): boolean" style="text;strokeColor=#6F0000;fillColor=#a20025;align=left;verticalAlign=top;spacingLeft=4;spacingRight=4;overflow=hidden;rotatable=0;points=[[0,0.5],[1,0.5]];portConstraint=eastwest;fontColor=#ffffff;" parent="102" vertex="1"><mxGeometry y="108" width="180" height="72" as="geometry"/></mxCell><mxCell id="106" value="Coord" style="swimlane;fontStyle=1;align=center;verticalAlign=top;childLayout=stackLayout;horizontal=1;startSize=26;horizontalStack=0;resizeParent=1;resizeParentMax=0;resizeLast=0;collapsible=1;marginBottom=0;fillColor=#a20025;fontColor=#ffffff;strokeColor=#6F0000;" parent="1" vertex="1"><mxGeometry x="275" y="1020" width="160" height="140" as="geometry"/></mxCell><mxCell id="107" value="- x: final int&#10;- y: final int" style="text;strokeColor=#6F0000;fillColor=#a20025;align=left;verticalAlign=top;spacingLeft=4;spacingRight=4;overflow=hidden;rotatable=0;points=[[0,0.5],[1,0.5]];portConstraint=eastwest;fontColor=#ffffff;" parent="106" vertex="1"><mxGeometry y="26" width="160" height="44" as="geometry"/></mxCell><mxCell id="108" value="" style="line;strokeWidth=1;fillColor=#a20025;align=left;verticalAlign=middle;spacingTop=-1;spacingLeft=3;spacingRight=3;rotatable=0;labelPosition=right;points=[];portConstraint=eastwest;strokeColor=#6F0000;fontColor=#ffffff;" parent="106" vertex="1"><mxGeometry y="70" width="160" height="8" as="geometry"/></mxCell><mxCell id="109" value="+ getXLocation(): int&#10;+ getYlLocation(): int&#10;+ setCoord(int, int): Coord" style="text;strokeColor=#6F0000;fillColor=#a20025;align=left;verticalAlign=top;spacingLeft=4;spacingRight=4;overflow=hidden;rotatable=0;points=[[0,0.5],[1,0.5]];portConstraint=eastwest;fontColor=#ffffff;" parent="106" vertex="1"><mxGeometry y="78" width="160" height="62" as="geometry"/></mxCell><mxCell id="110" value="Cell" style="swimlane;fontStyle=1;align=center;verticalAlign=top;childLayout=stackLayout;horizontal=1;startSize=26;horizontalStack=0;resizeParent=1;resizeParentMax=0;resizeLast=0;collapsible=1;marginBottom=0;fillColor=#a20025;fontColor=#ffffff;strokeColor=#6F0000;" parent="1" vertex="1"><mxGeometry x="480" y="1020" width="190" height="150" as="geometry"/></mxCell><mxCell id="111" value="- coord: final Coord&#10;+ beenShot: boolean&#10;+ hasShip: boolean" style="text;strokeColor=#6F0000;fillColor=#a20025;align=left;verticalAlign=top;spacingLeft=4;spacingRight=4;overflow=hidden;rotatable=0;points=[[0,0.5],[1,0.5]];portConstraint=eastwest;fontColor=#ffffff;" parent="110" vertex="1"><mxGeometry y="26" width="190" height="64" as="geometry"/></mxCell><mxCell id="112" value="" style="line;strokeWidth=1;fillColor=#a20025;align=left;verticalAlign=middle;spacingTop=-1;spacingLeft=3;spacingRight=3;rotatable=0;labelPosition=right;points=[];portConstraint=eastwest;strokeColor=#6F0000;fontColor=#ffffff;" parent="110" vertex="1"><mxGeometry y="90" width="190" height="8" as="geometry"/></mxCell><mxCell id="113" value="+ getCoord(): Coord&#10;+ updateBeenShot(boolean): void&#10;+ updateHasShip(boolean): void" style="text;strokeColor=#6F0000;fillColor=#a20025;align=left;verticalAlign=top;spacingLeft=4;spacingRight=4;overflow=hidden;rotatable=0;points=[[0,0.5],[1,0.5]];portConstraint=eastwest;fontColor=#ffffff;" parent="110" vertex="1"><mxGeometry y="98" width="190" height="52" as="geometry"/></mxCell><mxCell id="114" value="BattleSalvoModel" style="swimlane;fontStyle=1;align=center;verticalAlign=top;childLayout=stackLayout;horizontal=1;startSize=26;horizontalStack=0;resizeParent=1;resizeParentMax=0;resizeLast=0;collapsible=1;marginBottom=0;fillColor=#a20025;fontColor=#ffffff;strokeColor=#6F0000;" parent="1" vertex="1"><mxGeometry x="700" y="520" width="290" height="160" as="geometry"/></mxCell><mxCell id="115" value="- player1: Player&#10;- player2: Player" style="text;strokeColor=#6F0000;fillColor=#a20025;align=left;verticalAlign=top;spacingLeft=4;spacingRight=4;overflow=hidden;rotatable=0;points=[[0,0.5],[1,0.5]];portConstraint=eastwest;fontColor=#ffffff;" parent="114" vertex="1"><mxGeometry y="26" width="290" height="44" as="geometry"/></mxCell><mxCell id="116" value="" style="line;strokeWidth=1;fillColor=#a20025;align=left;verticalAlign=middle;spacingTop=-1;spacingLeft=3;spacingRight=3;rotatable=0;labelPosition=right;points=[];portConstraint=eastwest;strokeColor=#6F0000;fontColor=#ffffff;" parent="114" vertex="1"><mxGeometry y="70" width="290" height="8" as="geometry"/></mxCell><mxCell id="117" value="+ setup(int, int, map&lt;ShipType,int&gt;): void&#10;+ playRound(): GameResult&#10;+ invalidDim(List&lt;int&gt;): boolean&#10;+ invalidShips(map&lt;ShipType,int&gt;): boolean" style="text;strokeColor=#6F0000;fillColor=#a20025;align=left;verticalAlign=top;spacingLeft=4;spacingRight=4;overflow=hidden;rotatable=0;points=[[0,0.5],[1,0.5]];portConstraint=eastwest;fontColor=#ffffff;" parent="114" vertex="1"><mxGeometry y="78" width="290" height="82" as="geometry"/></mxCell><mxCell id="118" value="BattleSalvoBoard" style="swimlane;fontStyle=1;align=center;verticalAlign=top;childLayout=stackLayout;horizontal=1;startSize=26;horizontalStack=0;resizeParent=1;resizeParentMax=0;resizeLast=0;collapsible=1;marginBottom=0;fillColor=#a20025;fontColor=#ffffff;strokeColor=#6F0000;" parent="1" vertex="1"><mxGeometry x="470" y="720" width="190" height="290" as="geometry"/></mxCell><mxCell id="119" value="+ cells: Cell[][]&#10;+ specifications: Map&lt;ShipType, Integer&gt;&#10;+ fleet: List&lt;Ship&gt;" style="text;strokeColor=#6F0000;fillColor=#a20025;align=left;verticalAlign=top;spacingLeft=4;spacingRight=4;overflow=hidden;rotatable=0;points=[[0,0.5],[1,0.5]];portConstraint=eastwest;fontColor=#ffffff;" parent="118" vertex="1"><mxGeometry y="26" width="190" height="64" as="geometry"/></mxCell><mxCell id="120" value="" style="line;strokeWidth=1;fillColor=#a20025;align=left;verticalAlign=middle;spacingTop=-1;spacingLeft=3;spacingRight=3;rotatable=0;labelPosition=right;points=[];portConstraint=eastwest;strokeColor=#6F0000;fontColor=#ffffff;" parent="118" vertex="1"><mxGeometry y="90" width="190" height="8" as="geometry"/></mxCell><mxCell id="121" value="+ createBoard(int, int, &#10;Map&lt;ShipType, Integer&gt;): void&#10;- createCellts(int, int): Cell[][]&#10;- placeAllShips(Cell[][], Map&lt;Ship&#10;Type, Integer&gt;, List&lt;Ship&gt;): void&#10;- placeShips(Cell[][], ShipType,&#10; List&lt;Ship&gt;): void&#10;- canBePlacedVertically(Cell[][],&#10; Cell, ShipType): boolean&#10;- canBePlacedHorizontally(Cell[][],&#10; Cell, ShipType): boolean&#10;- placeShipsVertically(Cell[][], int, &#10;int, bool, ShipType, List&lt;Ship&gt;): void" style="text;strokeColor=#6F0000;fillColor=#a20025;align=left;verticalAlign=top;spacingLeft=4;spacingRight=4;overflow=hidden;rotatable=0;points=[[0,0.5],[1,0.5]];portConstraint=eastwest;fontColor=#ffffff;" parent="118" vertex="1"><mxGeometry y="98" width="190" height="192" as="geometry"/></mxCell><mxCell id="122" value="3-6" style="endArrow=open;html=1;endSize=12;startArrow=diamondThin;startSize=14;startFill=1;edgeStyle=orthogonalEdgeStyle;align=left;verticalAlign=bottom;rounded=0;exitX=0.5;exitY=0;exitDx=0;exitDy=0;entryX=0.5;entryY=1;entryDx=0;entryDy=0;" parent="1" source="106" target="102" edge="1"><mxGeometry x="-1" y="3" relative="1" as="geometry"><mxPoint x="340" y="920" as="sourcePoint"/><mxPoint x="500" y="920" as="targetPoint"/></mxGeometry></mxCell><mxCell id="123" value="1" style="endArrow=open;html=1;endSize=12;startArrow=diamondThin;startSize=14;startFill=1;edgeStyle=orthogonalEdgeStyle;align=left;verticalAlign=bottom;rounded=0;exitX=1;exitY=0.25;exitDx=0;exitDy=0;" parent="1" source="106" edge="1"><mxGeometry x="-1" y="3" relative="1" as="geometry"><mxPoint x="350" y="910" as="sourcePoint"/><mxPoint x="490" y="1065" as="targetPoint"/></mxGeometry></mxCell><mxCell id="124" value="1" style="endArrow=open;html=1;endSize=12;startArrow=diamondThin;startSize=14;startFill=1;edgeStyle=orthogonalEdgeStyle;align=left;verticalAlign=bottom;rounded=0;entryX=1.006;entryY=0.846;entryDx=0;entryDy=0;exitX=1;exitY=0.06;exitDx=0;exitDy=0;entryPerimeter=0;exitPerimeter=0;" parent="1" source="111" target="121" edge="1"><mxGeometry x="-1" y="3" relative="1" as="geometry"><mxPoint x="350" y="920" as="sourcePoint"/><mxPoint x="510" y="920" as="targetPoint"/></mxGeometry></mxCell><mxCell id="125" value="1" style="endArrow=open;html=1;endSize=12;startArrow=diamondThin;startSize=14;startFill=1;edgeStyle=orthogonalEdgeStyle;align=left;verticalAlign=bottom;rounded=0;entryX=0;entryY=0.877;entryDx=0;entryDy=0;exitX=1;exitY=0.5;exitDx=0;exitDy=0;entryPerimeter=0;" parent="1" source="103" target="121" edge="1"><mxGeometry x="-1" y="3" relative="1" as="geometry"><mxPoint x="350" y="920" as="sourcePoint"/><mxPoint x="510" y="920" as="targetPoint"/></mxGeometry></mxCell><mxCell id="126" value="2" style="endArrow=open;html=1;endSize=12;startArrow=diamondThin;startSize=14;startFill=0;edgeStyle=orthogonalEdgeStyle;align=left;verticalAlign=bottom;rounded=0;entryX=0;entryY=0.5;entryDx=0;entryDy=0;" parent="1" target="86" edge="1"><mxGeometry x="-1" y="3" relative="1" as="geometry"><mxPoint x="670" y="790" as="sourcePoint"/><mxPoint x="650" y="840" as="targetPoint"/></mxGeometry></mxCell><mxCell id="127" value="CS.3500.PA03" style="shape=folder;fontStyle=1;spacingTop=10;tabWidth=0;tabHeight=0;tabPosition=left;html=1;" parent="1" vertex="1"><mxGeometry x="262.5" y="110" width="85" height="60" as="geometry"/></mxCell><mxCell id="128" value="CS.3500.PA04" style="shape=folder;fontStyle=1;spacingTop=10;tabWidth=40;tabHeight=14;tabPosition=left;html=1;fillColor=#e3c800;fontColor=#000000;strokeColor=#B09500;" parent="1" vertex="1"><mxGeometry x="600" y="105" width="90" height="70" as="geometry"/></mxCell><mxCell id="129" value="json" style="shape=folder;fontStyle=1;spacingTop=10;tabWidth=40;tabHeight=14;tabPosition=left;html=1;" parent="1" vertex="1"><mxGeometry x="530" y="180" width="70" height="50" as="geometry"/></mxCell><mxCell id="131" value="&lt;p style=&quot;margin:0px;margin-top:4px;text-align:center;text-decoration:underline;&quot;&gt;&lt;b&gt;MessageJson&lt;/b&gt;&lt;/p&gt;&lt;hr&gt;&lt;p style=&quot;margin:0px;margin-left:8px;&quot;&gt;messageName: String (&quot;name)&amp;nbsp;&lt;/p&gt;&lt;p style=&quot;margin:0px;margin-left:8px;&quot;&gt;arguments: JsonNode (&quot;arguments')&lt;br&gt;&lt;/p&gt;&lt;p style=&quot;margin:0px;margin-left:8px;&quot;&gt;&lt;br&gt;&lt;/p&gt;" style="verticalAlign=top;align=left;overflow=fill;fontSize=12;fontFamily=Helvetica;html=1;fillColor=#e3c800;fontColor=#000000;strokeColor=#B09500;" parent="1" vertex="1"><mxGeometry x="860" y="20" width="200" height="70" as="geometry"/></mxCell><mxCell id="132" value="&lt;p style=&quot;margin:0px;margin-top:4px;text-align:center;text-decoration:underline;&quot;&gt;&lt;b&gt;SetupJson&lt;/b&gt;&lt;/p&gt;&lt;hr&gt;&lt;p style=&quot;margin:0px;margin-left:8px;&quot;&gt;name: String (&quot;name&quot;)&lt;br&gt;&lt;/p&gt;&lt;p style=&quot;margin: 0px 0px 0px 8px;&quot;&gt;fleet: JsonNode&amp;nbsp;&lt;span style=&quot;background-color: initial;&quot;&gt;List&amp;lt;Ships&amp;gt;&lt;/span&gt;&lt;/p&gt;" style="verticalAlign=top;align=left;overflow=fill;fontSize=12;fontFamily=Helvetica;html=1;fillColor=#e3c800;fontColor=#000000;strokeColor=#B09500;" parent="1" vertex="1"><mxGeometry x="930" y="95" width="160" height="90" as="geometry"/></mxCell><mxCell id="133" value="&lt;p style=&quot;margin:0px;margin-top:4px;text-align:center;text-decoration:underline;&quot;&gt;&lt;b&gt;Successful-hitsJson&lt;/b&gt;&lt;/p&gt;&lt;hr&gt;&lt;p style=&quot;margin: 0px 0px 0px 8px;&quot;&gt;name: String (&quot;name&quot;)&lt;/p&gt;" style="verticalAlign=top;align=left;overflow=fill;fontSize=12;fontFamily=Helvetica;html=1;fillColor=#e3c800;fontColor=#000000;strokeColor=#B09500;" parent="1" vertex="1"><mxGeometry x="930" y="190" width="160" height="90" as="geometry"/></mxCell><mxCell id="134" value="&lt;p style=&quot;margin:0px;margin-top:4px;text-align:center;text-decoration:underline;&quot;&gt;&lt;b&gt;Take-shotsJson&lt;/b&gt;&lt;/p&gt;&lt;hr&gt;&lt;p style=&quot;margin:0px;margin-left:8px;&quot;&gt;name: String (&quot;name&quot;)&lt;/p&gt;&lt;p style=&quot;margin:0px;margin-left:8px;&quot;&gt;coordinates: JsonNode&amp;nbsp;&lt;/p&gt;&lt;p style=&quot;margin:0px;margin-left:8px;&quot;&gt;List&amp;lt;Coord&amp;gt;&lt;/p&gt;" style="verticalAlign=top;align=left;overflow=fill;fontSize=12;fontFamily=Helvetica;html=1;fillColor=#e3c800;fontColor=#000000;strokeColor=#B09500;" parent="1" vertex="1"><mxGeometry x="1095" y="95" width="160" height="90" as="geometry"/></mxCell><mxCell id="135" value="&lt;p style=&quot;margin:0px;margin-top:4px;text-align:center;text-decoration:underline;&quot;&gt;&lt;b&gt;EndgameJson&lt;/b&gt;&lt;/p&gt;&lt;hr&gt;&lt;p style=&quot;margin: 0px 0px 0px 8px;&quot;&gt;name: String (&quot;name&quot;)&lt;/p&gt;&lt;div&gt;&lt;br&gt;&lt;/div&gt;" style="verticalAlign=top;align=left;overflow=fill;fontSize=12;fontFamily=Helvetica;html=1;fillColor=#e3c800;fontColor=#000000;strokeColor=#B09500;" parent="1" vertex="1"><mxGeometry x="1095" y="190" width="160" height="90" as="geometry"/></mxCell><mxCell id="136" value="&lt;p style=&quot;margin:0px;margin-top:4px;text-align:center;text-decoration:underline;&quot;&gt;&lt;b&gt;Report-damageJson&lt;/b&gt;&lt;/p&gt;&lt;hr&gt;&lt;p style=&quot;margin: 0px 0px 0px 8px;&quot;&gt;name: String (&quot;name&quot;)&lt;/p&gt;&lt;p style=&quot;margin: 0px 0px 0px 8px;&quot;&gt;coordinates: JsonNode&amp;nbsp;&lt;/p&gt;&lt;p style=&quot;margin: 0px 0px 0px 8px;&quot;&gt;List&amp;lt;Coord&amp;gt;&lt;/p&gt;" style="verticalAlign=top;align=left;overflow=fill;fontSize=12;fontFamily=Helvetica;html=1;fillColor=#e3c800;fontColor=#000000;strokeColor=#B09500;" parent="1" vertex="1"><mxGeometry x="765" y="190" width="160" height="90" as="geometry"/></mxCell><mxCell id="137" value="&lt;p style=&quot;margin:0px;margin-top:4px;text-align:center;text-decoration:underline;&quot;&gt;&lt;b&gt;JoinJson&lt;/b&gt;&lt;/p&gt;&lt;hr&gt;&lt;p style=&quot;margin:0px;margin-left:8px;&quot;&gt;name: String (&quot;name&quot;)&lt;br&gt;gameType: String (&quot;game-type&quot;)&lt;/p&gt;" style="verticalAlign=top;align=left;overflow=fill;fontSize=12;fontFamily=Helvetica;html=1;fillColor=#e3c800;fontColor=#000000;strokeColor=#B09500;" parent="1" vertex="1"><mxGeometry x="765" y="95" width="160" height="90" as="geometry"/></mxCell><mxCell id="138" value="&lt;p style=&quot;margin:0px;margin-top:4px;text-align:center;text-decoration:underline;&quot;&gt;&lt;b&gt;coord&lt;/b&gt;&lt;/p&gt;&lt;hr&gt;&lt;p style=&quot;margin: 0px 0px 0px 8px;&quot;&gt;- x: final int&lt;/p&gt;&lt;p style=&quot;margin: 0px 0px 0px 8px;&quot;&gt;- y: final int&lt;/p&gt;&lt;p style=&quot;margin: 0px 0px 0px 8px;&quot;&gt;&lt;br&gt;&lt;/p&gt;&lt;p style=&quot;margin: 0px 0px 0px 8px;&quot;&gt;+ getX(): int&lt;/p&gt;&lt;p style=&quot;margin: 0px 0px 0px 8px;&quot;&gt;+ getY(): int&lt;/p&gt;" style="verticalAlign=top;align=left;overflow=fill;fontSize=12;fontFamily=Helvetica;html=1;fillColor=#e3c800;fontColor=#000000;strokeColor=#B09500;" parent="1" vertex="1"><mxGeometry x="1275" y="380" width="165" height="110" as="geometry"/></mxCell><mxCell id="139" value="&lt;p style=&quot;margin:0px;margin-top:4px;text-align:center;text-decoration:underline;&quot;&gt;&lt;b&gt;fleet&lt;/b&gt;&lt;/p&gt;&lt;hr&gt;&lt;p style=&quot;margin:0px;margin-left:8px;&quot;&gt;&lt;span style=&quot;background-color: initial;&quot;&gt;- fleet: Ship[]&lt;/span&gt;&lt;br&gt;&lt;/p&gt;" style="verticalAlign=top;align=left;overflow=fill;fontSize=12;fontFamily=Helvetica;html=1;fillColor=#e3c800;fontColor=#000000;strokeColor=#B09500;" parent="1" vertex="1"><mxGeometry x="1275" y="80" width="160" height="90" as="geometry"/></mxCell><mxCell id="140" value="&lt;p style=&quot;margin:0px;margin-top:4px;text-align:center;text-decoration:underline;&quot;&gt;&lt;b&gt;ship&lt;/b&gt;&lt;/p&gt;&lt;hr&gt;&lt;p style=&quot;margin:0px;margin-left:8px;&quot;&gt;- cord: coord&lt;/p&gt;&lt;p style=&quot;margin:0px;margin-left:8px;&quot;&gt;- length: int&lt;/p&gt;&lt;p style=&quot;margin:0px;margin-left:8px;&quot;&gt;- direction: DIRECTION&lt;/p&gt;" style="verticalAlign=top;align=left;overflow=fill;fontSize=12;fontFamily=Helvetica;html=1;fillColor=#e3c800;fontColor=#000000;strokeColor=#B09500;" parent="1" vertex="1"><mxGeometry x="1275" y="180" width="160" height="90" as="geometry"/></mxCell><mxCell id="141" value="&lt;p style=&quot;margin:0px;margin-top:4px;text-align:center;text-decoration:underline;&quot;&gt;&lt;b&gt;volley&lt;/b&gt;&lt;/p&gt;&lt;hr&gt;&lt;p style=&quot;margin:0px;margin-left:8px;&quot;&gt;- volley: coord[]&lt;/p&gt;&lt;p style=&quot;margin:0px;margin-left:8px;&quot;&gt;&lt;br&gt;&lt;/p&gt;" style="verticalAlign=top;align=left;overflow=fill;fontSize=12;fontFamily=Helvetica;html=1;fillColor=#e3c800;fontColor=#000000;strokeColor=#B09500;" parent="1" vertex="1"><mxGeometry x="1275" y="280" width="160" height="90" as="geometry"/></mxCell><mxCell id="142" value="Direction (E)" style="swimlane;fontStyle=1;align=center;verticalAlign=top;childLayout=stackLayout;horizontal=1;startSize=26;horizontalStack=0;resizeParent=1;resizeParentMax=0;resizeLast=0;collapsible=1;marginBottom=0;fillColor=#e3c800;fontColor=#000000;strokeColor=#B09500;" vertex="1" parent="1"><mxGeometry x="1490" y="190" width="160" height="78" as="geometry"/></mxCell><mxCell id="143" value="+ DIRECTION.VERTICAL&#10;+ DIRECTION.HORIZONTAL" style="text;strokeColor=#B09500;fillColor=#e3c800;align=left;verticalAlign=top;spacingLeft=4;spacingRight=4;overflow=hidden;rotatable=0;points=[[0,0.5],[1,0.5]];portConstraint=eastwest;fontColor=#000000;" vertex="1" parent="142"><mxGeometry y="26" width="160" height="44" as="geometry"/></mxCell><mxCell id="144" value="" style="line;strokeWidth=1;fillColor=#e3c800;align=left;verticalAlign=middle;spacingTop=-1;spacingLeft=3;spacingRight=3;rotatable=0;labelPosition=right;points=[];portConstraint=eastwest;strokeColor=#B09500;fontColor=#000000;" vertex="1" parent="142"><mxGeometry y="70" width="160" height="8" as="geometry"/></mxCell><mxCell id="150" value="ProxyController" style="swimlane;fontStyle=1;align=center;verticalAlign=top;childLayout=stackLayout;horizontal=1;startSize=26;horizontalStack=0;resizeParent=1;resizeParentMax=0;resizeLast=0;collapsible=1;marginBottom=0;fillColor=#e3c800;fontColor=#000000;strokeColor=#B09500;" vertex="1" parent="1"><mxGeometry x="1030" y="310" width="200" height="210" as="geometry"/></mxCell><mxCell id="151" value="+ socket: Socket&#10;+ player: Player" style="text;strokeColor=#B09500;fillColor=#e3c800;align=left;verticalAlign=top;spacingLeft=4;spacingRight=4;overflow=hidden;rotatable=0;points=[[0,0.5],[1,0.5]];portConstraint=eastwest;fontColor=#000000;" vertex="1" parent="150"><mxGeometry y="26" width="200" height="44" as="geometry"/></mxCell><mxCell id="152" value="" style="line;strokeWidth=1;fillColor=#e3c800;align=left;verticalAlign=middle;spacingTop=-1;spacingLeft=3;spacingRight=3;rotatable=0;labelPosition=right;points=[];portConstraint=eastwest;strokeColor=#B09500;fontColor=#000000;" vertex="1" parent="150"><mxGeometry y="70" width="200" height="8" as="geometry"/></mxCell><mxCell id="153" value="+ delegateMessage(Message): void&#10;+ handleJoin(Message): void&#10;+ handleSetup(Message): void&#10;+ handleTakeShots(Message): void&#10;+ handleReportDamage(Message): void&#10;+ handleSuccessfulHits(Message): void&#10;+ handleEndgame(Message): void&#10;+ run(): void" style="text;strokeColor=#B09500;fillColor=#e3c800;align=left;verticalAlign=top;spacingLeft=4;spacingRight=4;overflow=hidden;rotatable=0;points=[[0,0.5],[1,0.5]];portConstraint=eastwest;fontColor=#000000;" vertex="1" parent="150"><mxGeometry y="78" width="200" height="132" as="geometry"/></mxCell><mxCell id="159" value="&lt;p style=&quot;margin:0px;margin-top:4px;text-align:center;&quot;&gt;&lt;br&gt;&lt;b&gt;JsonUtils&lt;/b&gt;&lt;/p&gt;&lt;p style=&quot;margin:0px;margin-top:4px;text-align:center;&quot;&gt;&lt;b&gt;(serialize)&lt;/b&gt;&lt;/p&gt;" style="verticalAlign=top;align=left;overflow=fill;fontSize=12;fontFamily=Helvetica;html=1;fillColor=#e3c800;fontColor=#000000;strokeColor=#B09500;" vertex="1" parent="1"><mxGeometry x="1115" y="-30" width="140" height="60" as="geometry"/></mxCell><mxCell id="160" value="&lt;font color=&quot;#ffd738&quot;&gt;//HANGING TODO's:&lt;br&gt;- convertCoord(coord)&lt;br&gt;- convertToVolley(List&amp;lt;coord&amp;gt;)&lt;br&gt;or make new volley class&lt;br&gt;- convertShip(Ship)&lt;br&gt;- convertFleet(List&amp;lt;Ship&amp;gt;)&lt;br&gt;// All go in proxy/model&lt;br&gt;&lt;/font&gt;" style="shape=note;whiteSpace=wrap;html=1;backgroundOutline=1;darkOpacity=0.05;fillColor=#e51400;fontColor=#ffffff;strokeColor=#B20000;" vertex="1" parent="1"><mxGeometry x="1490" y="290" width="200" height="190" as="geometry"/></mxCell><mxCell id="161" value="" style="endArrow=block;dashed=1;endFill=0;endSize=12;html=1;rounded=0;fontColor=#FFD738;exitX=1;exitY=0;exitDx=0;exitDy=0;entryX=0;entryY=0.25;entryDx=0;entryDy=0;" edge="1" parent="1" source="42" target="150"><mxGeometry width="160" relative="1" as="geometry"><mxPoint x="820" y="430" as="sourcePoint"/><mxPoint x="980" y="430" as="targetPoint"/></mxGeometry></mxCell></root></mxGraphModel></diagram></mxfile>